<?xml version="1.0" encoding="UTF-8" standalone="no"?>
<!-- Created with Inkscape (http://www.inkscape.org/) -->

<svg
   xmlns:dc="http://purl.org/dc/elements/1.1/"
   xmlns:cc="http://creativecommons.org/ns#"
   xmlns:rdf="http://www.w3.org/1999/02/22-rdf-syntax-ns#"
   xmlns:svg="http://www.w3.org/2000/svg"
   xmlns="http://www.w3.org/2000/svg"
   xmlns:sodipodi="http://sodipodi.sourceforge.net/DTD/sodipodi-0.dtd"
   xmlns:inkscape="http://www.inkscape.org/namespaces/inkscape"
   width="106.47406mm"
   height="73.786842mm"
   viewBox="0 0 106.47406 73.786845"
   version="1.1"
   id="svg8"
   inkscape:version="0.92.1 r15371"
   sodipodi:docname="favicon.svg">
  <defs
     id="defs2" />
  <sodipodi:namedview
     id="base"
     pagecolor="#ffffff"
     bordercolor="#666666"
     borderopacity="1.0"
     inkscape:pageopacity="0.0"
     inkscape:pageshadow="2"
     inkscape:zoom="0.35"
     inkscape:cx="644.27896"
     inkscape:cy="-1.4134829"
     inkscape:document-units="mm"
     inkscape:current-layer="layer1"
     showgrid="false"
     fit-margin-top="0"
     fit-margin-left="0"
     fit-margin-right="0"
     fit-margin-bottom="0"
     inkscape:window-width="1366"
     inkscape:window-height="706"
     inkscape:window-x="-8"
     inkscape:window-y="-8"
     inkscape:window-maximized="1" />
  <metadata
     id="metadata5">
    <rdf:RDF>
      <cc:Work
         rdf:about="">
        <dc:format>image/svg+xml</dc:format>
        <dc:type
           rdf:resource="http://purl.org/dc/dcmitype/StillImage" />
        <dc:title></dc:title>
      </cc:Work>
    </rdf:RDF>
  </metadata>
  <g
     inkscape:label="Layer 1"
     inkscape:groupmode="layer"
     id="layer1"
     transform="translate(190.87619,-74.67251)">
    <path
       style="display:inline;fill:#f57c00;stroke-width:0.26458332"
       d="m -104.81015,145.41853 -3.40444,-3.04113 -35.37844,-0.002 -35.37844,-0.002 -0.0757,2.57662 c -0.0599,2.03879 -0.15856,2.59243 -0.4726,2.65236 -0.41611,0.0794 -7.70079,-5.66129 -7.87112,-6.20285 -0.14431,-0.4588 7.51622,-6.52574 8.00365,-6.3387 0.31407,0.12052 0.39664,0.67717 0.39664,2.67406 v 2.52184 h 35.42802 35.42801 l 3.19693,-2.90432 c 1.75832,-1.59737 3.47808,-2.97488 3.82169,-3.06112 0.34361,-0.0862 1.05743,-0.11875 1.586273,-0.0722 l 0.96152,0.0846 -3.223553,2.91042 -3.22355,2.91041 1.38036,0.0801 1.38036,0.0801 2.954523,-2.68483 c 3.75538,-3.4126 3.85881,-3.47742 5.38974,-3.37776 l 1.25319,0.0816 -3.24199,2.91042 -3.24199,2.91041 1.35786,0.0802 c 1.51884,0.0897 1.15569,0.33104 5.79535,-3.85055 2.38984,-2.15389 2.44036,-2.18274 3.81324,-2.17781 l 1.39132,0.005 -1.5875,1.52157 c -0.87313,0.83686 -2.35193,2.20383 -3.28624,3.0377 l -1.69873,1.51615 h 1.36801 1.368 v 1.05833 1.05833 h -1.37865 -1.37864 l 1.97396,1.78325 c 1.08567,0.98078 2.56927,2.34743 3.29687,3.037 l 1.32292,1.25376 -1.36026,0.006 c -1.5203,0.006 -1.66893,-0.0939 -5.99542,-4.04371 l -2.26195,-2.06503 -1.39509,0.0807 -1.39509,0.0807 3.25618,2.91041 3.25619,2.91042 -0.99581,0.0846 c -0.54769,0.0465 -1.26224,0.0177 -1.58788,-0.064 -0.32564,-0.0817 -2.03475,-1.45924 -3.79804,-3.06112 l -3.205963,-2.91253 -1.38657,0.005 -1.38656,0.005 1.5875,1.51787 c 0.87312,0.83484 2.33843,2.2018 3.25623,3.03771 l 1.668723,1.51984 h -1.43928 -1.439283 z m -82.60872,-25.1548 c 2.69375,-4.07257 3.59127,-5.23536 4.20652,-5.44984 1.02667,-0.35789 1.05509,-1.22216 0.0526,-1.60054 -0.8816,-0.33277 -0.81636,-0.24713 -4.64312,-6.09482 l -3.07332,-4.69636 11.43287,0.0118 11.43286,0.0119 3.83646,5.13325 3.83646,5.13326 32.85991,0.0143 32.859923,0.0143 -0.61243,-1.38907 c -1.62012,-3.67463 -1.56857,-7.47447 0.10142,-7.47447 0.48516,0 0.91038,0.40554 1.8032,1.71979 1.64187,2.41684 2.16512,2.92783 5.74839,5.6138 1.74625,1.30896 3.175,2.56949 3.175,2.80118 0,0.23169 -1.01006,1.14177 -2.24457,2.02241 -3.05643,2.18029 -5.6406,4.66759 -6.75455,6.50135 -1.00289,1.65093 -1.48338,1.99006 -2.24332,1.58334 -1.36852,-0.7324 -0.97847,-4.22565 0.96765,-8.66635 0.11553,-0.26359 -6.514813,-0.33073 -32.658413,-0.33073 h -32.80335 l -3.93589,5.15784 -3.93589,5.15785 -11.41642,0.002 -11.41642,0.002 3.42439,-5.17719 z m 5.78988,-0.3644 c 1.47487,-2.17476 2.67486,-4.04999 2.66663,-4.16719 -0.008,-0.1172 -0.36628,-0.24974 -0.79571,-0.29454 -0.88017,-0.0918 -1.24656,0.33803 -4.74916,5.57155 l -1.90357,2.84427 h 1.05012 1.05011 z m 4.93923,-0.14695 c 1.48375,-2.18281 2.70415,-4.06523 2.71197,-4.18316 0.008,-0.11793 -0.43224,-0.17746 -0.97794,-0.13229 -0.95838,0.0793 -1.08413,0.21738 -3.68993,4.05087 -1.48376,2.18281 -2.70415,4.06523 -2.71198,4.18316 -0.008,0.11792 0.43225,0.17745 0.97795,0.13229 0.95837,-0.0793 1.08413,-0.21738 3.68993,-4.05087 z m 4.77994,0.0619 c 1.49336,-2.21684 2.71375,-4.11991 2.71198,-4.22905 -0.002,-0.10914 -0.41186,-0.19844 -0.91133,-0.19844 -0.87531,0 -1.00919,0.14839 -3.70417,4.10555 -1.53782,2.25805 -2.79604,4.16305 -2.79604,4.23333 0,0.0703 0.44649,0.12586 0.99219,0.1235 0.98311,-0.004 1.01703,-0.0412 3.70737,-4.03489 z m 4.78706,-0.004 c 1.47632,-2.22378 2.68421,-4.12878 2.68421,-4.23334 0,-0.10456 -0.41481,-0.1901 -0.9218,-0.1901 -0.89344,0 -1.00188,0.12011 -3.52344,3.9026 -1.43089,2.14644 -2.68998,4.05144 -2.79797,4.23334 -0.14349,0.24169 0.0824,0.33073 0.83922,0.33073 h 1.03557 l 2.68421,-4.04324 z m -11.76415,-7.66463 c -0.10565,-0.1819 -1.38485,-2.0869 -2.84267,-4.23333 -2.64654,-3.89667 -2.65214,-3.90261 -3.67313,-3.90261 -0.79627,0 -0.97573,0.081 -0.81096,0.36609 0.11637,0.20136 1.39615,2.10636 2.84396,4.23334 2.62564,3.85733 2.635,3.86724 3.65364,3.86724 0.74306,0 0.96893,-0.0901 0.82916,-0.33073 z m 4.75825,0 c -0.10799,-0.1819 -1.36708,-2.0869 -2.79798,-4.23333 -2.52155,-3.7825 -2.62999,-3.90261 -3.52343,-3.90261 -0.507,0 -0.92181,0.0855 -0.92181,0.1901 0,0.10456 1.2079,2.00956 2.68421,4.23334 l 2.68421,4.04323 h 1.03557 c 0.75679,0 0.98271,-0.089 0.83923,-0.33073 z m 4.91337,0.13229 c -0.008,-0.10914 -1.22822,-1.98437 -2.71197,-4.16719 -2.6058,-3.83349 -2.73156,-3.97155 -3.68993,-4.05087 -0.5457,-0.0452 -0.99219,-0.0122 -0.99219,0.0731 0,0.19405 4.68786,7.24944 5.23599,7.88034 0.39295,0.45229 2.18736,0.67229 2.1581,0.26458 z m 4.77417,0 c -10e-4,-0.10914 -1.22228,-1.98437 -2.71303,-4.16719 -2.61518,-3.82923 -2.74531,-3.97163 -3.7016,-4.05087 -0.54512,-0.0452 -0.99113,-0.0108 -0.99113,0.0763 0,0.17588 2.6149,4.12135 4.43159,6.68656 1.04571,1.47658 1.26778,1.65364 2.07393,1.65364 0.49655,0 0.90166,-0.0893 0.90024,-0.19843 z m -9.02734,-18.945573 c -4.09519,-1.78804 -7.74477,-4.00948 -11.27686,-6.86403 -2.56013,-2.06904 -2.4932,-2.23651 2.11667,-5.29609 4.75811,-3.15798 10.43831,-6.27099 11.7678,-6.44931 1.64815,-0.22107 1.79212,0.18372 1.16377,3.27215 -0.29083,1.42945 -0.58452,3.10501 -0.65265,3.72347 l -0.12388,1.12448 h 30.37844 30.37844 l 3.13232,-1.34473 c 6.719973,-2.88495 14.974803,-5.2022 17.536023,-4.92261 2.6199,0.28599 2.256,1.99312 -1.23677,5.80202 -0.76613,0.83548 -1.39297,1.62398 -1.39297,1.75222 0,0.12823 0.6086,0.99247 1.35245,1.92053 2.29393,2.86198 2.88088,3.83808 2.88088,4.79097 0,1.24142 -0.40338,1.5266 -2.15934,1.5266 -2.95947,0 -9.17802,-1.80834 -16.029263,-4.66129 l -4.05537,-1.68871 h -30.32356 -30.32357 l 0.15646,1.67545 c 0.0861,0.92149 0.35751,2.47586 0.60325,3.45416 0.81775,3.25546 -0.17006,3.80991 -3.89227,2.18472 z"
       id="path3690"
       inkscape:connector-curvature="0"
       sodipodi:nodetypes="ccccscccscccccccccccccccccscccccccccccsccccccccccscccccccccccccsccccccccsccsccccsccccccccccccccccccccccccssscccssccscccccscsscccssccsccccsccccccscsccscscaccccaccscssscccccs" />
  </g>
</svg>
